<?xml version="1.0" encoding="UTF-8"?>
<svg id="logoAll" xmlns="http://www.w3.org/2000/svg" viewBox="0 0 819.76 743.2">
  <g fill="#ffffff">
    <path d="m612.73,158.33c-16.66,0-33.12,3.15-48.46,9.21C544.03,70.86,458.2,0,357.68,0c-56.39,0-109.39,21.96-149.26,61.83-39.87,39.87-61.83,92.88-61.83,149.26,0,9.49.63,18.98,1.9,28.36-42.15,8.74-73.37,45.96-73.37,90.39,0,10.88,1.88,21.52,5.57,31.64,13.24,36.3,48.11,60.69,86.77,60.69h145.22l-75.92,85.21c-8.37,9.4-9.38,22.8-2.52,33.35,6.86,10.55,19.52,15.06,31.5,11.22l143.77-46.06c.24-.07.51-.07.74,0l143.78,46.06c2.85.91,5.73,1.35,8.58,1.35,9.1,0,17.7-4.53,22.92-12.57,6.86-10.54,5.85-23.94-2.52-33.35l-75.91-85.21h97.53c.66,0,1.31-.04,1.94-.14,2.04.1,4.1.14,6.16.14,72.74,0,131.91-59.17,131.91-131.91s-59.17-131.92-131.91-131.92Zm-49.4,366.57c.33.37.62.68.11,1.47-.5.77-.91.64-1.39.49l-143.78-46.06c-5.49-1.76-11.29-1.76-16.79,0l-143.78,46.06c-.47.15-.88.28-1.39-.49-.5-.78-.22-1.1.11-1.47l95.44-107.14,57.1-64.09c.09-.11.35-.4.9-.4s.82.3.9.4l57.1,64.1h0s95.43,107.14,95.43,107.14Zm49.4-129.07c-2.42,0-4.85-.08-7.21-.24-.3-.03-.6-.04-.9-.04-.9,0-1.8.1-2.67.27h-118.33l-53.18-59.69c-5.22-5.86-12.71-9.21-20.56-9.21s-15.35,3.35-20.57,9.22l-53.18,59.68h-168.68c-27.64,0-52.56-17.43-62.02-43.38-2.64-7.23-3.98-14.83-3.98-22.62,0-35.33,27.62-64.28,62.89-65.92,3.85-.18,7.41-2.03,9.78-5.06,2.36-3.04,3.28-6.95,2.52-10.72-2.47-12.12-3.71-24.58-3.71-37.05,0-101.87,82.88-184.75,184.75-184.75,93.3,0,172.13,69.74,183.38,162.2.53,4.37,3.21,8.19,7.15,10.18,3.93,1.98,8.6,1.86,12.43-.32,15.79-8.97,33.79-13.72,52.09-13.72,58.21,0,105.58,47.37,105.58,105.58s-47.37,105.58-105.58,105.58Z"/>
    <g>
      <path d="m71.35,731.81v7.67c0,2.01-1.63,3.64-3.64,3.64H3.64c-2.01,0-3.64-1.63-3.64-3.64v-81.42c0-2.01,1.63-3.64,3.64-3.64h63.55c2.01,0,3.64,1.63,3.64,3.64v7.66c0,2.01-1.63,3.64-3.64,3.64H19.86c-2.01,0-3.64,1.63-3.64,3.64v13.75c0,2.01,1.63,3.64,3.64,3.64h27.92c2.01,0,3.64,1.63,3.64,3.64v7.41c0,2.01-1.63,3.64-3.64,3.64h-27.92c-2.01,0-3.64,1.63-3.64,3.64v15.77c0,2.01,1.63,3.64,3.64,3.64h47.84c2.01,0,3.64,1.63,3.64,3.64Z"/>
      <path d="m291.72,731.84v7.67c0,2.01-1.63,3.64-3.64,3.64h-64.06c-2.01,0-3.64-1.63-3.64-3.64v-81.42c0-2.01,1.63-3.64,3.64-3.64h63.55c2.01,0,3.64,1.63,3.64,3.64v7.66c0,2.01-1.63,3.64-3.64,3.64h-47.33c-2.01,0-3.64,1.63-3.64,3.64v13.75c0,2.01,1.63,3.64,3.64,3.64h27.92c2.01,0,3.64,1.63,3.64,3.64v7.41c0,2.01-1.63,3.64-3.64,3.64h-27.92c-2.01,0-3.64,1.63-3.64,3.64v15.77c0,2.01,1.63,3.64,3.64,3.64h47.84c2.01,0,3.64,1.63,3.64,3.64Z"/>
      <path d="m819.76,731.8v7.67c0,2.01-1.63,3.64-3.64,3.64h-64.06c-2.01,0-3.64-1.63-3.64-3.64v-81.42c0-2.01,1.63-3.64,3.64-3.64h63.55c2.01,0,3.64,1.63,3.64,3.64v7.66c0,2.01-1.63,3.64-3.64,3.64h-47.33c-2.01,0-3.64,1.63-3.64,3.64v13.75c0,2.01,1.63,3.64,3.64,3.64h27.92c2.01,0,3.64,1.63,3.64,3.64v7.41c0,2.01-1.63,3.64-3.64,3.64h-27.92c-2.01,0-3.64,1.63-3.64,3.64v15.77c0,2.01,1.63,3.64,3.64,3.64h47.84c2.01,0,3.64,1.63,3.64,3.64Z"/>
      <path d="m189.37,659.51l-35.59,81.42c-.58,1.33-1.89,2.18-3.34,2.18h-12.49c-1.44,0-2.74-.85-3.33-2.16l-36.17-81.42c-1.07-2.41.69-5.12,3.33-5.12h9.87c1.45,0,2.77.86,3.34,2.2l20.72,47.86c.59,1.6,1.37,3.48,2.34,5.64.97,2.15,2.01,4.45,3.11,6.9,1.1,2.45,2.11,4.9,3.04,7.35.16.42.32.84.47,1.25.35-.94.72-1.91,1.11-2.9,1.23-3.12,2.5-6.25,3.81-9.37,1.31-3.13,2.51-6,3.61-8.62l19.23-48.02c.55-1.38,1.89-2.29,3.38-2.29h10.21c2.63,0,4.39,2.7,3.34,5.1Z"/>
      <path d="m388.07,712.55c-1.27-1.81-.64-4.28,1.31-5.33.01,0,.03-.01.04-.02,4.73-2.58,8.51-6.04,11.34-10.39,2.83-4.35,4.25-9.23,4.25-14.64s-1.33-10.07-3.99-14.25c-2.66-4.18-6.23-7.48-10.71-9.89-4.48-2.4-9.63-3.61-15.46-3.61h-44.39c-2.01,0-3.64,1.63-3.64,3.64v81.42c0,2.01,1.63,3.64,3.64,3.64h8.81c2.01,0,3.64-1.63,3.64-3.64v-24.77c0-2.01,1.63-3.64,3.64-3.64h18.93c1.19,0,2.3.58,2.99,1.56l20.24,28.96c.68.97,1.78,1.55,2.96,1.56l10.94.07c2.96.02,4.71-3.32,3-5.74l-17.55-24.91Zm-45.16-39.66c0-2.01,1.63-3.64,3.64-3.64h25.12c2.96,0,5.68.59,8.18,1.77,2.49,1.19,4.45,2.77,5.89,4.75,1.43,1.99,2.15,4.25,2.15,6.78s-.67,5.01-2.02,7.16c-1.36,2.16-3.22,3.87-5.58,5.14-2.37,1.26-4.94,1.9-7.73,1.9h-26.01c-2.01,0-3.64-1.63-3.64-3.64v-20.21Z"/>
      <path d="m460.5,673.27v15.77c0,2.01,1.63,3.64,3.64,3.64h30.65c2.01,0,3.64,1.63,3.64,3.64v7.66c0,2.01-1.63,3.64-3.64,3.64h-30.65c-2.01,0-3.64,1.63-3.64,3.64v28.2c0,2.01-1.63,3.64-3.64,3.64h-9.18c-2.01,0-3.64-1.63-3.64-3.64v-81.42c0-2.01,1.63-3.64,3.64-3.64h62.53c2.01,0,3.64,1.63,3.64,3.64v7.92c0,2.01-1.63,3.64-3.64,3.64h-46.06c-2.01,0-3.64,1.63-3.64,3.64Z"/>
      <path d="m548.44,739.48v-7.92c0-2.01,1.63-3.64,3.64-3.64h13.62c2.01,0,3.64-1.63,3.64-3.64v-51.01c0-2.01-1.63-3.64-3.64-3.64h-13.62c-2.01,0-3.64-1.63-3.64-3.64v-7.92c0-2.01,1.63-3.64,3.64-3.64h51.13c2.01,0,3.64,1.63,3.64,3.64v7.92c0,2.01-1.63,3.64-3.64,3.64h-13.75c-2.01,0-3.64,1.63-3.64,3.64v51.01c0,2.01,1.63,3.64,3.64,3.64h13.75c2.01,0,3.64,1.63,3.64,3.64v7.92c0,2.01-1.63,3.64-3.64,3.64h-51.13c-2.01,0-3.64-1.63-3.64-3.64Z"/>
      <path d="m646.27,739.48v-81.42c0-2.01,1.63-3.64,3.64-3.64h9.19c2.01,0,3.64,1.63,3.64,3.64v66.21c0,2.01,1.63,3.64,3.64,3.64h46.44c2.01,0,3.64,1.63,3.64,3.64v7.92c0,2.01-1.63,3.64-3.64,3.64h-62.92c-2.01,0-3.64-1.63-3.64-3.64Z"/>
    </g>
  </g>
</svg>